<mxfile host="Electron" modified="2023-11-30T17:29:59.665Z" agent="Mozilla/5.0 (Windows NT 10.0; Win64; x64) AppleWebKit/537.36 (KHTML, like Gecko) draw.io/22.1.2 Chrome/114.0.5735.289 Electron/25.9.4 Safari/537.36" etag="fDBVLfVOJRErBuL-lFbr" version="22.1.2" type="device">
  <diagram name="Page-1" id="c4acf3e9-155e-7222-9cf6-157b1a14988f">
    <mxGraphModel dx="1882" dy="1624" grid="1" gridSize="10" guides="1" tooltips="1" connect="1" arrows="1" fold="1" page="1" pageScale="1" pageWidth="850" pageHeight="1100" background="none" math="0" shadow="0">
      <root>
        <mxCell id="0" />
        <mxCell id="1" parent="0" />
        <mxCell id="17acba5748e5396b-1" value="geldmaat" style="shape=umlFrame;whiteSpace=wrap;html=1;rounded=0;shadow=0;comic=0;labelBackgroundColor=none;strokeWidth=1;fontFamily=Verdana;fontSize=10;align=center;width=75;height=30;" parent="1" vertex="1">
          <mxGeometry x="-560" y="-119" width="840" height="600" as="geometry" />
        </mxCell>
        <mxCell id="5d2195bd80daf111-18" value="&lt;p style=&quot;margin:0px;margin-top:4px;text-align:center;&quot;&gt;&lt;b&gt;Paslezer&lt;/b&gt;&lt;/p&gt;&lt;hr size=&quot;1&quot;&gt;&lt;p style=&quot;margin:0px;margin-left:4px;&quot;&gt;&lt;br&gt;&lt;/p&gt;&lt;hr size=&quot;1&quot;&gt;&lt;p style=&quot;margin:0px;margin-left:4px;&quot;&gt;checkPin (pin) : bool&lt;br&gt;leesIBAN () : string&lt;/p&gt;" style="verticalAlign=top;align=left;overflow=fill;fontSize=12;fontFamily=Helvetica;html=1;rounded=0;shadow=0;comic=0;labelBackgroundColor=none;strokeWidth=1" parent="1" vertex="1">
          <mxGeometry x="-520" y="122" width="200" height="118" as="geometry" />
        </mxCell>
        <mxCell id="yz3BnwviDVqijagN3H_O-1" value="&lt;p style=&quot;margin:0px;margin-top:4px;text-align:center;&quot;&gt;&lt;b&gt;BankVerbinding&lt;/b&gt;&lt;/p&gt;&lt;hr size=&quot;1&quot;&gt;&lt;p style=&quot;margin:0px;margin-left:4px;&quot;&gt;&lt;br&gt;&lt;/p&gt;&lt;hr size=&quot;1&quot;&gt;&lt;p style=&quot;margin:0px;margin-left:4px;&quot;&gt;checkBedrag (iban, bedrag): bool&lt;br&gt;schrijfAf (iban, bedrag): bool&lt;br&gt;&lt;/p&gt;" style="verticalAlign=top;align=left;overflow=fill;fontSize=12;fontFamily=Helvetica;html=1;rounded=0;shadow=0;comic=0;labelBackgroundColor=none;strokeWidth=1" parent="1" vertex="1">
          <mxGeometry x="40" y="120" width="200" height="119" as="geometry" />
        </mxCell>
        <mxCell id="yz3BnwviDVqijagN3H_O-2" value="&lt;p style=&quot;margin:0px;margin-top:4px;text-align:center;&quot;&gt;&lt;b&gt;GUI&lt;/b&gt;&lt;/p&gt;&lt;hr size=&quot;1&quot;&gt;&lt;p style=&quot;margin:0px;margin-left:4px;&quot;&gt;&lt;br&gt;&lt;/p&gt;&lt;hr size=&quot;1&quot;&gt;&lt;p style=&quot;margin:0px;margin-left:4px;&quot;&gt;leesPin () : int&lt;br&gt;leesBedrag (): int&lt;/p&gt;" style="verticalAlign=top;align=left;overflow=fill;fontSize=12;fontFamily=Helvetica;html=1;rounded=0;shadow=0;comic=0;labelBackgroundColor=none;strokeWidth=1" parent="1" vertex="1">
          <mxGeometry x="-240" y="-80" width="195" height="118" as="geometry" />
        </mxCell>
        <mxCell id="yz3BnwviDVqijagN3H_O-3" value="&lt;p style=&quot;margin:0px;margin-top:4px;text-align:center;&quot;&gt;&lt;b&gt;Cassette&lt;/b&gt;&lt;/p&gt;&lt;hr size=&quot;1&quot;&gt;&lt;p style=&quot;margin:0px;margin-left:4px;&quot;&gt;&lt;br&gt;&lt;/p&gt;&lt;hr size=&quot;1&quot;&gt;&lt;p style=&quot;margin:0px;margin-left:4px;&quot;&gt;geefBedrag (bedrag): bool&lt;/p&gt;" style="verticalAlign=top;align=left;overflow=fill;fontSize=12;fontFamily=Helvetica;html=1;rounded=0;shadow=0;comic=0;labelBackgroundColor=none;strokeWidth=1" parent="1" vertex="1">
          <mxGeometry x="-240" y="322" width="200" height="118" as="geometry" />
        </mxCell>
        <mxCell id="WBE-kihb5ReXwufo-4LI-2" value="" style="endArrow=diamondThin;html=1;rounded=0;endFill=1;endSize=16;" parent="1" source="yz3BnwviDVqijagN3H_O-3" target="WBE-kihb5ReXwufo-4LI-6" edge="1">
          <mxGeometry width="50" height="50" relative="1" as="geometry">
            <mxPoint x="-350" y="140" as="sourcePoint" />
            <mxPoint x="-135.7129411764704" y="220" as="targetPoint" />
          </mxGeometry>
        </mxCell>
        <mxCell id="WBE-kihb5ReXwufo-4LI-3" value="" style="endArrow=diamondThin;html=1;rounded=0;endFill=1;endSize=16;" parent="1" source="yz3BnwviDVqijagN3H_O-2" target="WBE-kihb5ReXwufo-4LI-6" edge="1">
          <mxGeometry width="50" height="50" relative="1" as="geometry">
            <mxPoint x="-117" y="300" as="sourcePoint" />
            <mxPoint x="-135.0058997050146" y="117" as="targetPoint" />
          </mxGeometry>
        </mxCell>
        <mxCell id="WBE-kihb5ReXwufo-4LI-4" value="" style="endArrow=diamondThin;html=1;rounded=0;endFill=1;endSize=16;" parent="1" source="yz3BnwviDVqijagN3H_O-1" target="WBE-kihb5ReXwufo-4LI-6" edge="1">
          <mxGeometry width="50" height="50" relative="1" as="geometry">
            <mxPoint x="-117" y="78" as="sourcePoint" />
            <mxPoint x="-87" y="170.71903052064636" as="targetPoint" />
          </mxGeometry>
        </mxCell>
        <mxCell id="WBE-kihb5ReXwufo-4LI-5" value="" style="endArrow=diamondThin;html=1;rounded=0;endFill=1;endSize=16;" parent="1" source="5d2195bd80daf111-18" target="WBE-kihb5ReXwufo-4LI-6" edge="1">
          <mxGeometry width="50" height="50" relative="1" as="geometry">
            <mxPoint x="-117" y="78" as="sourcePoint" />
            <mxPoint x="-190" y="170.7868561278865" as="targetPoint" />
          </mxGeometry>
        </mxCell>
        <mxCell id="WBE-kihb5ReXwufo-4LI-6" value="&lt;p style=&quot;margin:0px;margin-top:4px;text-align:center;&quot;&gt;&lt;b&gt;Controller&lt;/b&gt;&lt;/p&gt;&lt;hr size=&quot;1&quot;&gt;&lt;p style=&quot;margin:0px;margin-left:4px;&quot;&gt;&lt;br&gt;&lt;/p&gt;&lt;hr size=&quot;1&quot;&gt;&lt;p style=&quot;margin:0px;margin-left:4px;&quot;&gt;&lt;br&gt;&lt;/p&gt;" style="verticalAlign=top;align=left;overflow=fill;fontSize=12;fontFamily=Helvetica;html=1;rounded=0;shadow=0;comic=0;labelBackgroundColor=none;strokeWidth=1" parent="1" vertex="1">
          <mxGeometry x="-240" y="120" width="200" height="118" as="geometry" />
        </mxCell>
      </root>
    </mxGraphModel>
  </diagram>
</mxfile>
